<!DOCTYPE svg PUBLIC "-//W3C//DTD SVG 1.1//EN" "http://www.w3.org/Graphics/SVG/1.1/DTD/svg11.dtd">
<!-- Uploaded to: SVG Repo, www.svgrepo.com, Transformed by: SVG Repo Mixer Tools -->
<svg fill="#000000" version="1.1" id="Capa_1" xmlns="http://www.w3.org/2000/svg" xmlns:xlink="http://www.w3.org/1999/xlink" width="226px" height="226px" viewBox="-38.58 -38.58 462.93 462.93" xml:space="preserve" stroke="#000000" stroke-width="0.0038577400000000006" transform="matrix(1, 0, 0, 1, 0, 0)rotate(0)">
<g id="SVGRepo_bgCarrier" stroke-width="0">
<rect x="-38.58" y="-38.58" width="462.93" height="462.93" rx="231.465" fill="#ffffff" strokewidth="0"/>
</g>
<g id="SVGRepo_tracerCarrier" stroke-linecap="round" stroke-linejoin="round"/>
<g id="SVGRepo_iconCarrier"> <g> <path d="M0,120.308V265.48c0,25.223,17.733,35.49,39.613,22.955l126.989-72.831c21.877-12.544,21.877-32.877,0-45.417 L39.613,97.361C17.733,84.816,0,95.093,0,120.308z"/> <path d="M195.555,123.654v138.485c0,25.207,13.846,45.645,30.941,45.645c17.079,0,30.917-20.446,30.917-45.645V123.654 c0-25.208-13.85-45.663-30.917-45.663C209.392,77.991,195.555,98.445,195.555,123.654z"/> <path d="M323.896,123.654v138.485c0,25.207,13.854,45.645,30.941,45.645c17.083,0,30.937-20.446,30.937-45.645V123.654 c0-25.208-13.854-45.663-30.937-45.663C337.75,77.991,323.896,98.445,323.896,123.654z"/> </g> </g>
</svg>